<svg xmlns="http://www.w3.org/2000/svg" viewBox="0 0 59 19">
  <g fill="#fff" fill-rule="evenodd">
    <path d="M58.821372 14.5423026L58.821372 18.5514511 41.9635219 18.5514511C47.5899364 13.4207861 53.1811492 8.32232723 58.8156347 3.18444194 58.8232196 3.33008234 58.8316796 3.41720056 58.8317769 3.50431879 58.8325548 4.69908304 58.8285679 5.89394229 58.83625 7.08870654 58.8374169 7.27852357 58.7768352 7.40801337 58.6345704 7.53712315 56.1616124 9.78376636 53.6936139 12.0356348 51.2227953 14.2845581 51.1505446 14.3502055 51.0592344 14.3959022 50.9767733 14.4509092 50.9960272 14.4813103 51.0153784 14.5118065 51.0346322 14.5423026L58.821372 14.5423026zM40.3586227 18.5281467L35.9447171 18.5281467 35.9447171 5.42640148C35.7331188 5.83871675 35.5824912 6.26385749 35.4331277 6.68937825 34.0767981 10.5559265 32.7187182 14.4217146 31.3705569 18.2909229 31.2995704 18.4947055 31.2068989 18.5514226 30.9969537 18.5489525 30.0633345 18.5381221 29.1294236 18.5371721 28.1958045 18.5494275 27.9745792 18.5522776 27.8762677 18.4945155 27.8038225 18.2787625 26.4024699 14.1093431 24.9911015 9.94305876 23.5814834 5.77629944 23.5533805 5.69317136 23.5218741 5.61118332 23.4361068 5.53660556L23.4361068 18.5234916 18.9993494 18.5234916 18.9993494.019656228C19.0996057.0150010556 19.1903324.00730577058 19.2810591.00730577058 21.4286457.00664074595 23.5763296.0114859254 25.723819.0000855031672 25.9581719-.00114954258 26.0380074.0807434905 26.1091885.279110837 27.256837 3.4748392 28.4123621 6.66781246 29.5666231 9.86126073 29.593948 9.93697854 29.6274965 10.0106063 29.6841885 10.1487414 29.8982178 9.56218966 30.0926043 9.03169001 30.2853377 8.50062034 31.2820668 5.75482864 32.2802546 3.00960697 33.2704685.26163019 33.3402882.0677280084 33.4308204.000465517242 33.6461139.00141555243 35.7937005.0102508797 37.9412871.00673574947 40.0888738.00673574947L40.3586227.00673574947 40.3586227 18.5281467zM4.45007956 14.4703469C4.4843087 14.4881126 4.50045085 14.5036932 4.51669024 14.5037882 5.93350424 14.5129085 7.3532355 14.5727607 8.75342115 14.282145 9.83231966 14.0582217 10.8443158 13.6733624 11.5817008 12.8436967 13.0876856 11.1494989 13.262332 9.1881513 12.5247525 7.15735609 11.9799063 5.65706052 10.7215965 4.84563547 9.20462341 4.38933357 7.66615983 3.92657143 6.08471535 4.04922097 4.51192539 4.05121605 4.49626945 4.05131105 4.48071075 4.06736664 4.45007956 4.08427727L4.45007956 14.4703469zM0 .023731879C.0712782885.0165116115.116981966.00767628431.162685644.00777128783 2.53392857.0129014778 4.90643564-.0258599578 7.27602546.0385524279 9.24614569.0920394089 11.1731878.442032372 12.9447401 1.35131105 15.40564 2.61447783 16.8663101 4.60366151 17.3425035 7.27259536 17.624505 8.85297889 17.621296 10.4366875 17.1560909 11.986765 16.4735502 14.2606742 15.014436 15.9400514 12.912942 17.0932991 11.2636227 17.9984926 9.47524752 18.4716101 7.59439533 18.5122716 5.13106436 18.5655686 2.66588579 18.5374476.201387907 18.5430528.138180693 18.5432428.0749734795 18.5288973 0 18.5198719L0 .023731879zM51.7178731 4.09782477L41.9698621 4.09782477 41.9698621.0448796622 58.8290736.0448796622C58.8290736.631906404 58.8346163 1.22187825 58.8220721 1.81147009 58.8205163 1.88481281 58.7341655 1.96737087 58.6690134 2.02684307 54.5723108 5.76608656 50.4737606 9.50342998 46.3754049 13.2408684 44.9910697 14.5032752 43.6070262 15.7658719 42.222302 17.0278037 42.1496623 17.0940211 42.072355 17.1553934 41.9495385 17.2593272L41.9495385 16.9995876C41.9495385 15.7775574 41.944093 14.5554321 41.9574151 13.3334968 41.9587765 13.2003019 42.033361 13.0318607 42.132645 12.9408473 45.2692786 10.0665158 48.4131082 7.19978466 51.5560626 4.33219845 51.616936 4.2767164 51.6808239 4.22446446 51.7433504 4.17069247 51.7348904 4.14646657 51.7263331 4.12214567 51.7178731 4.09782477"></path>
  </g>
</svg>